<svg xmlns="http://www.w3.org/2000/svg" xmlns:xlink="http://www.w3.org/1999/xlink" id="Layer_1" x="0px" y="0px" viewBox="0 0 378.1 108.4" style="enable-background:new 0 0 378.1 108.4;" xml:space="preserve"><style type="text/css">	.st0{fill:#FFFFFF;}	.st1{fill:#FF5100;}	.st2{clip-path:url(#SVGID_00000076577855190121291570000005655241086231755904_);}	.st3{opacity:0.19;}	.st4{fill:#749DD2;}	.st5{opacity:8.000000e-02;}	.st6{opacity:0.25;}</style><g>	<g id="Layer_1_00000059271350891531886680000012246445001464817592_">		<g>			<path class="st0" d="M27,11.9l2.7,2.4l4.8-0.4l2.7,1.1l4.8-3.8h5.6L51,9.4l2.4,0.2l-0.8,2.5l4.3,1.8h3.2l0.8,2.7l3.8,3.2l-5.3,1    h-3l0.3,2.2h-3.2l-4.9-3.2L44,21.8L39.3,27h-3.7l1.5-4.3l-2.5,0.2L29.6,34h-4l1.4-3.3l-2-1.4l1.1-3.8l-5.4-3.2L16.2,22    C16.2,22,18.6,16.6,27,11.9z"></path>			<g>				<g>					<path class="st1" d="M107.3,54.3c0,28.3-23,51.3-51.3,51.3S4.7,82.7,4.7,54.3C4.7,42.1,9,30.8,16.2,22l4.6,0.3l5.4,3.2L25,29.3      l2,1.4l-1.4,3.3h4l4.9-11.1l2.5-0.2l-1.5,4.3h3.7l4.7-5.2l4.7-2.1l4.9,3.2h3.2l-0.3-2.2h3l5.3-1l-3.8-3.2l-0.8-2.7H57l-4.3-1.8      l0.8-2.5l-2.4-0.2l-3.5,1.9H42l-4.8,3.8L34.5,14l-4.8,0.4l-2.7-2.4C35.3,6.3,45.3,3,56,3C84.3,3,107.3,26,107.3,54.3z"></path>					<g>						<g>							<defs>								<circle id="SVGID_1_" cx="56" cy="54.5" r="51.3"></circle>							</defs>							<clipPath id="SVGID_00000166658272219982857740000010099405777033961895_">								<use xlink:href="#SVGID_1_" style="overflow:visible;"></use>							</clipPath>							<g style="clip-path:url(#SVGID_00000166658272219982857740000010099405777033961895_);">								<g>									<g class="st3">										<path class="st4" d="M3.9,42.6L3.3,43v-0.7l0.6-0.5h0.6v4.4H3.9V42.6z"></path>										<path class="st4" d="M2.9,49.3c0-0.4,0.1-0.7,0.4-0.9C3.5,48.1,3.8,48,4.1,48c0.3,0,0.6,0.1,0.8,0.3           c0.2,0.2,0.4,0.5,0.4,0.9v1.9c0,0.4-0.1,0.7-0.4,0.9c-0.2,0.2-0.5,0.3-0.8,0.3c-0.3,0-0.6-0.1-0.8-0.3           c-0.2-0.2-0.4-0.5-0.4-0.9V49.3z M4.7,49.3c0-0.4-0.2-0.7-0.6-0.7c-0.4,0-0.6,0.2-0.6,0.7v1.9c0,0.4,0.2,0.7,0.6,0.7           c0.4,0,0.6-0.2,0.6-0.7V49.3z"></path>										<path class="st4" d="M2.9,55.4c0-0.4,0.1-0.7,0.4-0.9c0.2-0.2,0.5-0.3,0.8-0.3c0.3,0,0.6,0.1,0.8,0.3           c0.2,0.2,0.4,0.5,0.4,0.9v1.9c0,0.4-0.1,0.7-0.4,0.9c-0.2,0.2-0.5,0.3-0.8,0.3c-0.3,0-0.6-0.1-0.8-0.3           c-0.2-0.2-0.4-0.5-0.4-0.9V55.4z M4.7,55.4c0-0.4-0.2-0.7-0.6-0.7c-0.4,0-0.6,0.2-0.6,0.7v1.9c0,0.4,0.2,0.7,0.6,0.7           c0.4,0,0.6-0.2,0.6-0.7V55.4z"></path>										<path class="st4" d="M2.9,61.5c0-0.4,0.1-0.7,0.4-0.9c0.2-0.2,0.5-0.3,0.8-0.3c0.3,0,0.6,0.1,0.8,0.3           c0.2,0.2,0.4,0.5,0.4,0.9v1.9c0,0.4-0.1,0.7-0.4,0.9c-0.2,0.2-0.5,0.3-0.8,0.3c-0.3,0-0.6-0.1-0.8-0.3           c-0.2-0.2-0.4-0.5-0.4-0.9V61.5z M4.7,61.6c0-0.4-0.2-0.7-0.6-0.7c-0.4,0-0.6,0.2-0.6,0.7v1.9c0,0.4,0.2,0.7,0.6,0.7           c0.4,0,0.6-0.2,0.6-0.7V61.6z"></path>									</g>									<g class="st3">										<path class="st4" d="M19.4,5c0-0.4,0.1-0.6,0.3-0.8C20,4,20.2,3.9,20.5,3.9s0.5,0.1,0.8,0.3c0.2,0.2,0.3,0.5,0.3,0.8v1.8           c0,0.4-0.1,0.7-0.3,0.9s-0.5,0.3-0.8,0.3c-0.3,0-0.5-0.1-0.8-0.3c-0.2-0.2-0.3-0.5-0.3-0.8V5z M21.1,5           c0-0.4-0.2-0.6-0.5-0.6C20.2,4.4,20,4.6,20,5v1.7c0,0.4,0.2,0.6,0.5,0.6s0.5-0.2,0.5-0.6V5z"></path>										<path class="st4" d="M19.4,10.6c0-0.4,0.1-0.6,0.3-0.9c0.2-0.2,0.5-0.3,0.8-0.3s0.5,0.1,0.8,0.3c0.2,0.2,0.3,0.5,0.3,0.9           v1.8c0,0.4-0.1,0.6-0.3,0.9c-0.2,0.2-0.5,0.3-0.8,0.3c-0.3,0-0.5-0.1-0.8-0.3c-0.2-0.2-0.3-0.5-0.3-0.8V10.6z M21.1,10.6           c0-0.4-0.2-0.6-0.5-0.6c-0.4,0-0.5,0.2-0.5,0.6v1.7c0,0.4,0.2,0.6,0.5,0.6s0.5-0.2,0.5-0.6C21.1,12.3,21.1,10.6,21.1,10.6           z"></path>										<path class="st4" d="M19.4,27.3c0-0.4,0.1-0.6,0.3-0.9c0.2-0.2,0.5-0.3,0.8-0.3s0.5,0.1,0.8,0.3c0.2,0.2,0.3,0.5,0.3,0.9           v1.8c0,0.4-0.1,0.6-0.3,0.9s-0.5,0.3-0.8,0.3c-0.3,0-0.5-0.1-0.8-0.3c-0.2-0.2-0.3-0.5-0.3-0.8V27.3z M21.1,27.4           c0-0.4-0.2-0.6-0.5-0.6c-0.4,0-0.5,0.2-0.5,0.6v1.7c0,0.4,0.2,0.6,0.5,0.6s0.5-0.2,0.5-0.6V27.4z"></path>										<path class="st4" d="M20.3,32.4l-0.5,0.4v-0.6l0.5-0.4h0.5v4h-0.5V32.4L20.3,32.4z"></path>										<path class="st4" d="M19.4,38.5c0-0.4,0.1-0.7,0.3-0.8c0.2-0.2,0.5-0.3,0.8-0.3s0.5,0.1,0.8,0.3c0.2,0.2,0.3,0.5,0.3,0.8           v1.8c0,0.4-0.1,0.7-0.3,0.8c-0.2,0.2-0.5,0.3-0.8,0.3c-0.3,0-0.5-0.1-0.8-0.3c-0.2-0.2-0.3-0.5-0.3-0.8V38.5z M21.1,38.6           c0-0.4-0.2-0.6-0.5-0.6c-0.4,0-0.5,0.2-0.5,0.6v1.7c0,0.4,0.2,0.6,0.5,0.6s0.5-0.2,0.5-0.6V38.6z"></path>										<path class="st4" d="M20.3,43.6L19.7,44v-0.6l0.5-0.4h0.5v4h-0.5V43.6L20.3,43.6z"></path>										<path class="st4" d="M20.3,49.2l-0.5,0.4V49l0.5-0.4h0.5v4h-0.5V49.2L20.3,49.2z"></path>										<path class="st4" d="M20.3,54.8l-0.5,0.4v-0.6l0.5-0.4h0.5v4h-0.5V54.8L20.3,54.8z"></path>										<path class="st4" d="M19.4,60.9c0-0.4,0.1-0.7,0.3-0.8c0.2-0.2,0.5-0.3,0.8-0.3s0.5,0.1,0.8,0.3c0.2,0.2,0.3,0.5,0.3,0.8           v1.8c0,0.4-0.1,0.7-0.3,0.8c-0.2,0.2-0.5,0.3-0.8,0.3c-0.3,0-0.5-0.1-0.8-0.3c-0.2-0.2-0.3-0.5-0.3-0.8V60.9z M21.1,60.9           c0-0.4-0.2-0.6-0.5-0.6c-0.4,0-0.5,0.2-0.5,0.6v1.7c0,0.4,0.2,0.6,0.5,0.6s0.5-0.2,0.5-0.6V60.9z"></path>										<path class="st4" d="M20.3,65.9l-0.5,0.4v-0.6l0.5-0.4h0.5v4h-0.5V65.9L20.3,65.9z"></path>										<path class="st4" d="M19.4,72c0-0.4,0.1-0.7,0.3-0.8c0.2-0.2,0.5-0.3,0.8-0.3s0.5,0.1,0.8,0.3c0.2,0.2,0.3,0.5,0.3,0.8           v1.8c0,0.4-0.1,0.7-0.3,0.8s-0.5,0.3-0.8,0.3c-0.3,0-0.5-0.1-0.8-0.3c-0.2-0.2-0.3-0.5-0.3-0.8V72z M21.1,72.1           c0-0.4-0.2-0.6-0.5-0.6c-0.4,0-0.5,0.2-0.5,0.6v1.7c0,0.4,0.2,0.6,0.5,0.6s0.5-0.2,0.5-0.6V72.1z"></path>										<path class="st4" d="M19.4,77.6c0-0.4,0.1-0.7,0.3-0.8c0.2-0.2,0.5-0.3,0.8-0.3s0.5,0.1,0.8,0.3c0.2,0.2,0.3,0.5,0.3,0.8           v1.8c0,0.4-0.1,0.7-0.3,0.8s-0.5,0.3-0.8,0.3c-0.3,0-0.5-0.1-0.8-0.3c-0.2-0.2-0.3-0.5-0.3-0.8V77.6z M21.1,77.7           c0-0.4-0.2-0.6-0.5-0.6c-0.4,0-0.5,0.2-0.5,0.6v1.7c0,0.4,0.2,0.6,0.5,0.6s0.5-0.2,0.5-0.6V77.7z"></path>										<path class="st4" d="M19.4,83.2c0-0.4,0.1-0.7,0.3-0.8c0.2-0.2,0.5-0.3,0.8-0.3s0.5,0.1,0.8,0.3c0.2,0.2,0.3,0.5,0.3,0.8           v1.8c0,0.4-0.1,0.7-0.3,0.8s-0.5,0.3-0.8,0.3c-0.3,0-0.5-0.1-0.8-0.3c-0.2-0.2-0.3-0.5-0.3-0.8V83.2z M21.1,83.2           c0-0.4-0.2-0.6-0.5-0.6c-0.4,0-0.5,0.2-0.5,0.6v1.7c0,0.4,0.2,0.6,0.5,0.6s0.5-0.2,0.5-0.6V83.2z"></path>										<path class="st4" d="M19.4,88.8c0-0.4,0.1-0.7,0.3-0.8c0.2-0.2,0.5-0.3,0.8-0.3s0.5,0.1,0.8,0.3c0.2,0.2,0.3,0.5,0.3,0.8           v1.8c0,0.4-0.1,0.7-0.3,0.8s-0.5,0.3-0.8,0.3c-0.3,0-0.5-0.1-0.8-0.3c-0.2-0.2-0.3-0.5-0.3-0.8V88.8z M21.1,88.8           c0-0.4-0.2-0.6-0.5-0.6c-0.4,0-0.5,0.2-0.5,0.6v1.7c0,0.4,0.2,0.6,0.5,0.6s0.5-0.2,0.5-0.6V88.8z"></path>										<path class="st4" d="M20.3,93.9l-0.5,0.4v-0.6l0.5-0.4h0.5v4h-0.5V93.9L20.3,93.9z"></path>										<path class="st4" d="M19.4,99.9c0-0.4,0.1-0.7,0.3-0.8c0.2-0.2,0.5-0.3,0.8-0.3s0.5,0.1,0.8,0.3c0.2,0.2,0.3,0.5,0.3,0.8           v1.8c0,0.4-0.1,0.7-0.3,0.8s-0.5,0.3-0.8,0.3c-0.3,0-0.5-0.1-0.8-0.3c-0.2-0.2-0.3-0.5-0.3-0.8V99.9z M21.1,100           c0-0.4-0.2-0.6-0.5-0.6c-0.4,0-0.5,0.2-0.5,0.6v1.7c0,0.4,0.2,0.6,0.5,0.6s0.5-0.2,0.5-0.6V100z"></path>										<path class="st4" d="M19.4,105.5c0-0.4,0.1-0.7,0.3-0.8c0.2-0.2,0.5-0.3,0.8-0.3s0.5,0.1,0.8,0.3c0.2,0.2,0.3,0.5,0.3,0.8           v1.8c0,0.4-0.1,0.7-0.3,0.8s-0.5,0.3-0.8,0.3c-0.3,0-0.5-0.1-0.8-0.3c-0.2-0.2-0.3-0.5-0.3-0.8V105.5z M21.1,105.6           c0-0.4-0.2-0.6-0.5-0.6c-0.4,0-0.5,0.2-0.5,0.6v1.7c0,0.4,0.2,0.6,0.5,0.6s0.5-0.2,0.5-0.6V105.6z"></path>									</g>									<g class="st5">										<path class="st4" d="M35.9,9.2l-1.3,1V8.7l1.3-1h1.4v7.4l-1.4-0.5C35.9,14.6,35.9,9.2,35.9,9.2z"></path>										<path class="st4" d="M33.8,38c0-0.9,0.3-1.6,0.8-2.1c0.5-0.5,1.1-0.7,1.8-0.7s1.4,0.2,1.9,0.7c0.5,0.5,0.8,1.2,0.8,2.1           v4.3c0,0.9-0.3,1.6-0.8,2.1c-0.5,0.5-1.1,0.7-1.9,0.7c-0.7,0-1.3-0.2-1.8-0.7c-0.5-0.5-0.8-1.2-0.8-2.1           C33.8,42.3,33.8,38,33.8,38z M37.9,38c0-1-0.5-1.5-1.3-1.5c-0.9,0-1.3,0.5-1.3,1.5v4.2c0,1,0.5,1.5,1.3,1.5           c0.9,0,1.3-0.5,1.3-1.5V38z"></path>										<path class="st4" d="M35.9,50.5l-1.3,1V50l1.3-1h1.4v9.8h-1.4V50.5z"></path>										<path class="st4" d="M33.8,65.5c0-0.9,0.3-1.6,0.8-2.1c0.5-0.5,1.1-0.7,1.8-0.7s1.4,0.2,1.9,0.7c0.5,0.5,0.8,1.2,0.8,2.1           v4.3c0,0.9-0.3,1.6-0.8,2.1s-1.1,0.7-1.9,0.7c-0.7,0-1.3-0.2-1.8-0.7c-0.5-0.5-0.8-1.2-0.8-2.1           C33.8,69.8,33.8,65.5,33.8,65.5z M37.9,65.6c0-1-0.5-1.5-1.3-1.5c-0.9,0-1.3,0.5-1.3,1.5v4.2c0,1,0.5,1.5,1.3,1.5           c0.9,0,1.3-0.5,1.3-1.5C37.9,69.7,37.9,65.6,37.9,65.6z"></path>										<path class="st4" d="M33.8,79.2c0-0.9,0.3-1.6,0.8-2.1c0.5-0.5,1.1-0.7,1.8-0.7s1.4,0.2,1.9,0.7c0.5,0.5,0.8,1.2,0.8,2.1           v4.3c0,0.9-0.3,1.6-0.8,2.1s-1.1,0.7-1.9,0.7c-0.7,0-1.3-0.2-1.8-0.7c-0.5-0.5-0.8-1.2-0.8-2.1V79.2z M37.9,79.3           c0-1-0.5-1.5-1.3-1.5c-0.9,0-1.3,0.5-1.3,1.5v4.2c0,1,0.5,1.5,1.3,1.5c0.9,0,1.3-0.5,1.3-1.5V79.3z"></path>										<path class="st4" d="M35.9,91.8l-1.3,1v-1.5l1.3-1h1.4v9.8h-1.4V91.8z"></path>									</g>									<g class="st3">										<path class="st4" d="M54.7,5.7l-0.6,0.5V5.5l0.6-0.4h0.6v4.4h-0.6V5.7z"></path>										<path class="st4" d="M53.8,24.7c0-0.4,0.1-0.7,0.4-0.9c0.2-0.2,0.5-0.3,0.8-0.3s0.6,0.1,0.8,0.3c0.2,0.2,0.4,0.5,0.4,0.9           v1.9c0,0.4-0.1,0.7-0.4,0.9c-0.2,0.2-0.5,0.3-0.8,0.3c-0.3,0-0.6-0.1-0.8-0.3c-0.2-0.2-0.4-0.5-0.4-0.9V24.7z M55.5,24.8           c0-0.4-0.2-0.7-0.6-0.7c-0.4,0-0.6,0.2-0.6,0.7v1.9c0,0.4,0.2,0.7,0.6,0.7s0.6-0.2,0.6-0.7V24.8z"></path>										<path class="st4" d="M53.8,30.9c0-0.4,0.1-0.7,0.4-0.9c0.2-0.2,0.5-0.3,0.8-0.3s0.6,0.1,0.8,0.3c0.2,0.2,0.4,0.5,0.4,0.9           v1.9c0,0.4-0.1,0.7-0.4,0.9S55.3,34,55,34c-0.3,0-0.6-0.1-0.8-0.3c-0.2-0.2-0.4-0.5-0.4-0.9           C53.8,32.8,53.8,30.9,53.8,30.9z M55.5,30.9c0-0.4-0.2-0.7-0.6-0.7c-0.4,0-0.6,0.2-0.6,0.7v1.9c0,0.4,0.2,0.7,0.6,0.7           s0.6-0.2,0.6-0.7C55.5,32.8,55.5,30.9,55.5,30.9z"></path>										<path class="st4" d="M54.7,36.4l-0.6,0.5v-0.7l0.6-0.5h0.6v4.4h-0.6V36.4z"></path>										<path class="st4" d="M54.7,42.6L54.1,43v-0.7l0.6-0.5h0.6v4.4h-0.6V42.6z"></path>										<path class="st4" d="M53.8,49.3c0-0.4,0.1-0.7,0.4-0.9c0.2-0.2,0.5-0.3,0.8-0.3s0.6,0.1,0.8,0.3c0.2,0.2,0.4,0.5,0.4,0.9           v1.9c0,0.4-0.1,0.7-0.4,0.9s-0.5,0.3-0.8,0.3c-0.3,0-0.6-0.1-0.8-0.3c-0.2-0.2-0.4-0.5-0.4-0.9V49.3z M55.5,49.3           c0-0.4-0.2-0.7-0.6-0.7c-0.4,0-0.6,0.2-0.6,0.7v1.9c0,0.4,0.2,0.7,0.6,0.7s0.6-0.2,0.6-0.7V49.3z"></path>										<path class="st4" d="M53.8,55.4c0-0.4,0.1-0.7,0.4-0.9c0.2-0.2,0.5-0.3,0.8-0.3s0.6,0.1,0.8,0.3c0.2,0.2,0.4,0.5,0.4,0.9           v1.9c0,0.4-0.1,0.7-0.4,0.9s-0.5,0.3-0.8,0.3c-0.3,0-0.6-0.1-0.8-0.3c-0.2-0.2-0.4-0.5-0.4-0.9V55.4z M55.5,55.4           c0-0.4-0.2-0.7-0.6-0.7c-0.4,0-0.6,0.2-0.6,0.7v1.9c0,0.4,0.2,0.7,0.6,0.7s0.6-0.2,0.6-0.7V55.4z"></path>										<path class="st4" d="M54.7,73.3l-0.6,0.5v-0.7l0.6-0.4h0.6V77h-0.6C54.7,77,54.7,73.3,54.7,73.3z"></path>										<path class="st4" d="M53.8,79.9c0-0.4,0.1-0.7,0.4-0.9c0.2-0.2,0.5-0.3,0.8-0.3s0.6,0.1,0.8,0.3c0.2,0.2,0.4,0.5,0.4,0.9           v1.9c0,0.4-0.1,0.7-0.4,0.9s-0.5,0.3-0.8,0.3c-0.3,0-0.6-0.1-0.8-0.3c-0.2-0.2-0.4-0.5-0.4-0.9V79.9z M55.5,80           c0-0.4-0.2-0.7-0.6-0.7c-0.4,0-0.6,0.2-0.6,0.7v1.9c0,0.4,0.2,0.7,0.6,0.7s0.6-0.2,0.6-0.7V80z"></path>										<path class="st4" d="M54.7,85.5L54.1,86v-0.7l0.6-0.4h0.6v4.4h-0.6C54.7,89.2,54.7,85.5,54.7,85.5z"></path>										<path class="st4" d="M54.7,91.7l-0.6,0.5v-0.7l0.6-0.4h0.6v4.4h-0.6C54.7,95.4,54.7,91.7,54.7,91.7z"></path>										<path class="st4" d="M54.7,97.8l-0.6,0.5v-0.7l0.6-0.4h0.6v4.4h-0.6C54.7,101.5,54.7,97.8,54.7,97.8z"></path>										<path class="st4" d="M53.8,104.5c0-0.4,0.1-0.7,0.4-0.9c0.2-0.2,0.5-0.3,0.8-0.3s0.6,0.1,0.8,0.3c0.2,0.2,0.4,0.5,0.4,0.9           v1.9c0,0.4-0.1,0.7-0.4,0.9s-0.5,0.3-0.8,0.3c-0.3,0-0.6-0.1-0.8-0.3c-0.2-0.2-0.4-0.5-0.4-0.9V104.5z M55.5,104.5           c0-0.4-0.2-0.7-0.6-0.7c-0.4,0-0.6,0.2-0.6,0.7v1.9c0,0.4,0.2,0.7,0.6,0.7s0.6-0.2,0.6-0.7V104.5z"></path>									</g>									<g class="st6">										<path class="st4" d="M72.6,7.6l-1.2,0.9V7.2l1.2-0.9h1.2v8.9h-1.2C72.6,15.2,72.6,7.6,72.6,7.6z"></path>										<path class="st4" d="M70.7,21.3c0-0.8,0.3-1.5,0.8-1.9c0.5-0.4,1-0.7,1.7-0.7s1.2,0.2,1.7,0.7c0.5,0.4,0.7,1.1,0.7,1.9           v3.9c0,0.8-0.3,1.5-0.7,1.9c-0.5,0.4-1,0.7-1.7,0.7c-0.7,0-1.2-0.2-1.7-0.7c-0.5-0.4-0.8-1.1-0.8-1.9V21.3z M74.4,21.4           c0-0.9-0.4-1.4-1.2-1.4c-0.8,0-1.2,0.5-1.2,1.4v3.8c0,0.9,0.4,1.4,1.2,1.4c0.8,0,1.2-0.5,1.2-1.4           C74.4,25.2,74.4,21.4,74.4,21.4z"></path>										<path class="st4" d="M70.7,33.8c0-0.8,0.3-1.5,0.8-1.9c0.5-0.4,1-0.7,1.7-0.7s1.2,0.2,1.7,0.7c0.5,0.4,0.7,1.1,0.7,1.9           v3.9c0,0.8-0.3,1.5-0.7,1.9c-0.5,0.4-1,0.7-1.7,0.7c-0.7,0-1.2-0.2-1.7-0.7c-0.5-0.4-0.8-1.1-0.8-1.9           C70.7,37.8,70.7,33.8,70.7,33.8z M74.4,33.9c0-0.9-0.4-1.3-1.2-1.4c-0.8,0-1.2,0.5-1.2,1.4v3.8c0,0.9,0.4,1.4,1.2,1.4           c0.8,0,1.2-0.5,1.2-1.4V33.9z"></path>										<path class="st4" d="M72.6,45.2l-1.2,0.9v-1.4l1.2-0.9h1.2v8.9h-1.2V45.2z"></path>										<path class="st4" d="M70.7,58.9c0-0.8,0.3-1.5,0.8-1.9c0.5-0.4,1-0.7,1.7-0.7s1.2,0.2,1.7,0.7c0.5,0.4,0.7,1.1,0.7,1.9           v3.9c0,0.8-0.3,1.4-0.7,1.9c-0.5,0.4-1,0.7-1.7,0.7c-0.7,0-1.2-0.2-1.7-0.7c-0.5-0.4-0.8-1.1-0.8-1.9V58.9z M74.4,59           c0-0.9-0.4-1.3-1.2-1.4c-0.8,0-1.2,0.5-1.2,1.4v3.8c0,0.9,0.4,1.4,1.2,1.4c0.8,0,1.2-0.5,1.2-1.4V59z"></path>										<path class="st4" d="M70.7,71.4c0-0.8,0.3-1.5,0.8-1.9c0.5-0.4,1-0.7,1.7-0.7s1.2,0.2,1.7,0.7c0.5,0.4,0.7,1.1,0.7,1.9           v3.9c0,0.8-0.3,1.4-0.7,1.9c-0.5,0.4-1,0.7-1.7,0.7c-0.7,0-1.2-0.2-1.7-0.7c-0.5-0.4-0.8-1.1-0.8-1.9V71.4z M74.4,71.5           c0-0.9-0.4-1.3-1.2-1.4c-0.8,0-1.2,0.5-1.2,1.4v3.8c0,0.9,0.4,1.4,1.2,1.4c0.8,0,1.2-0.5,1.2-1.4V71.5z"></path>										<path class="st4" d="M72.6,82.8l-1.2,0.9v-1.4l1.2-0.9h1.2v8.9h-1.2V82.8z"></path>										<path class="st4" d="M70.7,96.5c0-0.8,0.3-1.5,0.8-1.9c0.5-0.4,1-0.7,1.7-0.7s1.2,0.2,1.7,0.7c0.5,0.4,0.7,1.1,0.7,1.9           v3.9c0,0.8-0.3,1.4-0.7,1.9c-0.5,0.4-1,0.7-1.7,0.7c-0.7,0-1.2-0.2-1.7-0.7c-0.5-0.4-0.8-1.1-0.8-1.9V96.5z M74.4,96.6           c0-0.9-0.4-1.3-1.2-1.4c-0.8,0-1.2,0.5-1.2,1.4v3.8c0,0.9,0.4,1.4,1.2,1.4c0.8,0,1.2-0.5,1.2-1.4V96.6z"></path>									</g>									<g class="st3">										<path class="st4" d="M88.6,5.7L88,6.2V5.5l0.6-0.4h0.6v4.4h-0.6V5.7z"></path>										<path class="st4" d="M87.6,12.4c0-0.4,0.1-0.7,0.4-0.9c0.2-0.2,0.5-0.3,0.8-0.3s0.6,0.1,0.8,0.3c0.2,0.2,0.4,0.5,0.4,0.9           v1.9c0,0.4-0.1,0.7-0.4,0.9s-0.5,0.3-0.8,0.3c-0.3,0-0.6-0.1-0.8-0.3c-0.2-0.2-0.4-0.5-0.4-0.9V12.4z M89.4,12.5           c0-0.4-0.2-0.7-0.6-0.7c-0.4,0-0.6,0.2-0.6,0.7v1.9c0,0.4,0.2,0.7,0.6,0.7s0.6-0.2,0.6-0.7V12.5z"></path>										<path class="st4" d="M87.6,18.6c0-0.4,0.1-0.7,0.4-0.9c0.2-0.2,0.5-0.3,0.8-0.3s0.6,0.1,0.8,0.3c0.2,0.2,0.4,0.5,0.4,0.9           v1.9c0,0.4-0.1,0.7-0.4,0.9c-0.2,0.2-0.5,0.3-0.8,0.3c-0.3,0-0.6-0.1-0.8-0.3c-0.2-0.2-0.4-0.5-0.4-0.9V18.6z M89.4,18.6           c0-0.4-0.2-0.7-0.6-0.7c-0.4,0-0.6,0.2-0.6,0.7v1.9c0,0.4,0.2,0.7,0.6,0.7s0.6-0.2,0.6-0.7V18.6z"></path>										<path class="st4" d="M87.6,24.7c0-0.4,0.1-0.7,0.4-0.9c0.2-0.2,0.5-0.3,0.8-0.3s0.6,0.1,0.8,0.3c0.2,0.2,0.4,0.5,0.4,0.9           v1.9c0,0.4-0.1,0.7-0.4,0.9c-0.2,0.2-0.5,0.3-0.8,0.3c-0.3,0-0.6-0.1-0.8-0.3c-0.2-0.2-0.4-0.5-0.4-0.9V24.7z M89.4,24.8           c0-0.4-0.2-0.7-0.6-0.7c-0.4,0-0.6,0.2-0.6,0.7v1.9c0,0.4,0.2,0.7,0.6,0.7s0.6-0.2,0.6-0.7V24.8z"></path>										<path class="st4" d="M87.6,30.9c0-0.4,0.1-0.7,0.4-0.9c0.2-0.2,0.5-0.3,0.8-0.3s0.6,0.1,0.8,0.3c0.2,0.2,0.4,0.5,0.4,0.9           v1.9c0,0.4-0.1,0.7-0.4,0.9S89.2,34,88.8,34c-0.3,0-0.6-0.1-0.8-0.3c-0.2-0.2-0.4-0.5-0.4-0.9           C87.6,32.8,87.6,30.9,87.6,30.9z M89.4,30.9c0-0.4-0.2-0.7-0.6-0.7c-0.4,0-0.6,0.2-0.6,0.7v1.9c0,0.4,0.2,0.7,0.6,0.7           s0.6-0.2,0.6-0.7C89.4,32.8,89.4,30.9,89.4,30.9z"></path>										<path class="st4" d="M88.6,36.4L88,36.9v-0.7l0.6-0.5h0.6v4.4h-0.6V36.4z"></path>										<path class="st4" d="M88.6,42.6L88,43v-0.7l0.6-0.5h0.6v4.4h-0.6V42.6z"></path>										<path class="st4" d="M87.6,49.3c0-0.4,0.1-0.7,0.4-0.9c0.2-0.2,0.5-0.3,0.8-0.3s0.6,0.1,0.8,0.3c0.2,0.2,0.4,0.5,0.4,0.9           v1.9c0,0.4-0.1,0.7-0.4,0.9s-0.5,0.3-0.8,0.3c-0.3,0-0.6-0.1-0.8-0.3c-0.2-0.2-0.4-0.5-0.4-0.9V49.3z M89.4,49.3           c0-0.4-0.2-0.7-0.6-0.7c-0.4,0-0.6,0.2-0.6,0.7v1.9c0,0.4,0.2,0.7,0.6,0.7s0.6-0.2,0.6-0.7V49.3z"></path>										<path class="st4" d="M87.6,55.4c0-0.4,0.1-0.7,0.4-0.9c0.2-0.2,0.5-0.3,0.8-0.3s0.6,0.1,0.8,0.3c0.2,0.2,0.4,0.5,0.4,0.9           v1.9c0,0.4-0.1,0.7-0.4,0.9s-0.5,0.3-0.8,0.3c-0.3,0-0.6-0.1-0.8-0.3c-0.2-0.2-0.4-0.5-0.4-0.9V55.4z M89.4,55.4           c0-0.4-0.2-0.7-0.6-0.7c-0.4,0-0.6,0.2-0.6,0.7v1.9c0,0.4,0.2,0.7,0.6,0.7s0.6-0.2,0.6-0.7V55.4z"></path>										<path class="st4" d="M87.6,61.5c0-0.4,0.1-0.7,0.4-0.9c0.2-0.2,0.5-0.3,0.8-0.3s0.6,0.1,0.8,0.3c0.2,0.2,0.4,0.5,0.4,0.9           v1.9c0,0.4-0.1,0.7-0.4,0.9s-0.5,0.3-0.8,0.3c-0.3,0-0.6-0.1-0.8-0.3c-0.2-0.2-0.4-0.5-0.4-0.9V61.5z M89.4,61.6           c0-0.4-0.2-0.7-0.6-0.7c-0.4,0-0.6,0.2-0.6,0.7v1.9c0,0.4,0.2,0.7,0.6,0.7s0.6-0.2,0.6-0.7V61.6z"></path>										<path class="st4" d="M87.6,67.7c0-0.4,0.1-0.7,0.4-0.9c0.2-0.2,0.5-0.3,0.8-0.3s0.6,0.1,0.8,0.3c0.2,0.2,0.4,0.5,0.4,0.9           v1.9c0,0.4-0.1,0.7-0.4,0.9s-0.5,0.3-0.8,0.3c-0.3,0-0.6-0.1-0.8-0.3c-0.2-0.2-0.4-0.5-0.4-0.9V67.7z M89.4,67.7           c0-0.4-0.2-0.7-0.6-0.7c-0.4,0-0.6,0.2-0.6,0.7v1.9c0,0.4,0.2,0.7,0.6,0.7s0.6-0.2,0.6-0.7V67.7z"></path>										<path class="st4" d="M88.6,73.3L88,73.7v-0.7l0.6-0.4h0.6V77h-0.6C88.6,77,88.6,73.3,88.6,73.3z"></path>										<path class="st4" d="M87.6,79.9c0-0.4,0.1-0.7,0.4-0.9c0.2-0.2,0.5-0.3,0.8-0.3s0.6,0.1,0.8,0.3c0.2,0.2,0.4,0.5,0.4,0.9           v1.9c0,0.4-0.1,0.7-0.4,0.9s-0.5,0.3-0.8,0.3c-0.3,0-0.6-0.1-0.8-0.3c-0.2-0.2-0.4-0.5-0.4-0.9V79.9z M89.4,80           c0-0.4-0.2-0.7-0.6-0.7c-0.4,0-0.6,0.2-0.6,0.7v1.9c0,0.4,0.2,0.7,0.6,0.7s0.6-0.2,0.6-0.7V80z"></path>										<path class="st4" d="M88.6,85.5L88,86v-0.7l0.6-0.4h0.6v4.4h-0.6C88.6,89.2,88.6,85.5,88.6,85.5z"></path>										<path class="st4" d="M88.6,91.7L88,92.1v-0.7l0.6-0.4h0.6v4.4h-0.6C88.6,95.4,88.6,91.7,88.6,91.7z"></path>										<path class="st4" d="M88.6,97.8L88,98.3v-0.7l0.6-0.4h0.6v4.4h-0.6C88.6,101.5,88.6,97.8,88.6,97.8z"></path>										<path class="st4" d="M87.6,104.5c0-0.4,0.1-0.7,0.4-0.9c0.2-0.2,0.5-0.3,0.8-0.3s0.6,0.1,0.8,0.3c0.2,0.2,0.4,0.5,0.4,0.9           v1.9c0,0.4-0.1,0.7-0.4,0.9s-0.5,0.3-0.8,0.3c-0.3,0-0.6-0.1-0.8-0.3c-0.2-0.2-0.4-0.5-0.4-0.9V104.5z M89.4,104.5           c0-0.4-0.2-0.7-0.6-0.7c-0.4,0-0.6,0.2-0.6,0.7v1.9c0,0.4,0.2,0.7,0.6,0.7s0.6-0.2,0.6-0.7V104.5z"></path>									</g>									<g class="st3">										<path class="st4" d="M105.5,5.7l-0.6,0.5V5.5l0.6-0.4h0.6v4.4h-0.6V5.7z"></path>										<path class="st4" d="M104.6,12.4c0-0.4,0.1-0.7,0.4-0.9c0.2-0.2,0.5-0.3,0.8-0.3s0.6,0.1,0.8,0.3c0.2,0.2,0.4,0.5,0.4,0.9           v1.9c0,0.4-0.1,0.7-0.4,0.9s-0.5,0.3-0.8,0.3c-0.3,0-0.6-0.1-0.8-0.3c-0.2-0.2-0.4-0.5-0.4-0.9V12.4z M106.4,12.5           c0-0.4-0.2-0.7-0.6-0.7c-0.4,0-0.6,0.2-0.6,0.7v1.9c0,0.4,0.2,0.7,0.6,0.7s0.6-0.2,0.6-0.7V12.5z"></path>										<path class="st4" d="M104.6,18.6c0-0.4,0.1-0.7,0.4-0.9c0.2-0.2,0.5-0.3,0.8-0.3s0.6,0.1,0.8,0.3c0.2,0.2,0.4,0.5,0.4,0.9           v1.9c0,0.4-0.1,0.7-0.4,0.9c-0.2,0.2-0.5,0.3-0.8,0.3c-0.3,0-0.6-0.1-0.8-0.3c-0.2-0.2-0.4-0.5-0.4-0.9V18.6z M106.4,18.6           c0-0.4-0.2-0.7-0.6-0.7c-0.4,0-0.6,0.2-0.6,0.7v1.9c0,0.4,0.2,0.7,0.6,0.7s0.6-0.2,0.6-0.7V18.6z"></path>										<path class="st4" d="M104.6,24.7c0-0.4,0.1-0.7,0.4-0.9c0.2-0.2,0.5-0.3,0.8-0.3s0.6,0.1,0.8,0.3c0.2,0.2,0.4,0.5,0.4,0.9           v1.9c0,0.4-0.1,0.7-0.4,0.9c-0.2,0.2-0.5,0.3-0.8,0.3c-0.3,0-0.6-0.1-0.8-0.3c-0.2-0.2-0.4-0.5-0.4-0.9V24.7z M106.4,24.8           c0-0.4-0.2-0.7-0.6-0.7c-0.4,0-0.6,0.2-0.6,0.7v1.9c0,0.4,0.2,0.7,0.6,0.7s0.6-0.2,0.6-0.7V24.8z"></path>										<path class="st4" d="M104.6,30.9c0-0.4,0.1-0.7,0.4-0.9c0.2-0.2,0.5-0.3,0.8-0.3s0.6,0.1,0.8,0.3c0.2,0.2,0.4,0.5,0.4,0.9           v1.9c0,0.4-0.1,0.7-0.4,0.9s-0.5,0.3-0.8,0.3c-0.3,0-0.6-0.1-0.8-0.3c-0.2-0.2-0.4-0.5-0.4-0.9           C104.6,32.8,104.6,30.9,104.6,30.9z M106.4,30.9c0-0.4-0.2-0.7-0.6-0.7c-0.4,0-0.6,0.2-0.6,0.7v1.9c0,0.4,0.2,0.7,0.6,0.7           s0.6-0.2,0.6-0.7C106.4,32.8,106.4,30.9,106.4,30.9z"></path>										<path class="st4" d="M105.5,36.4l-0.6,0.5v-0.7l0.6-0.5h0.6v4.4h-0.6V36.4z"></path>										<path class="st4" d="M105.5,42.6l-0.6,0.5v-0.7l0.6-0.5h0.6v4.4h-0.6V42.6z"></path>										<path class="st4" d="M104.6,49.3c0-0.4,0.1-0.7,0.4-0.9c0.2-0.2,0.5-0.3,0.8-0.3s0.6,0.1,0.8,0.3c0.2,0.2,0.4,0.5,0.4,0.9           v1.9c0,0.4-0.1,0.7-0.4,0.9s-0.5,0.3-0.8,0.3c-0.3,0-0.6-0.1-0.8-0.3c-0.2-0.2-0.4-0.5-0.4-0.9V49.3z M106.4,49.3           c0-0.4-0.2-0.7-0.6-0.7c-0.4,0-0.6,0.2-0.6,0.7v1.9c0,0.4,0.2,0.7,0.6,0.7s0.6-0.2,0.6-0.7V49.3z"></path>										<path class="st4" d="M104.6,55.4c0-0.4,0.1-0.7,0.4-0.9c0.2-0.2,0.5-0.3,0.8-0.3s0.6,0.1,0.8,0.3c0.2,0.2,0.4,0.5,0.4,0.9           v1.9c0,0.4-0.1,0.7-0.4,0.9s-0.5,0.3-0.8,0.3c-0.3,0-0.6-0.1-0.8-0.3c-0.2-0.2-0.4-0.5-0.4-0.9V55.4z M106.4,55.4           c0-0.4-0.2-0.7-0.6-0.7c-0.4,0-0.6,0.2-0.6,0.7v1.9c0,0.4,0.2,0.7,0.6,0.7s0.6-0.2,0.6-0.7V55.4z"></path>										<path class="st4" d="M104.6,61.5c0-0.4,0.1-0.7,0.4-0.9c0.2-0.2,0.5-0.3,0.8-0.3s0.6,0.1,0.8,0.3c0.2,0.2,0.4,0.5,0.4,0.9           v1.9c0,0.4-0.1,0.7-0.4,0.9s-0.5,0.3-0.8,0.3c-0.3,0-0.6-0.1-0.8-0.3c-0.2-0.2-0.4-0.5-0.4-0.9V61.5z M106.4,61.6           c0-0.4-0.2-0.7-0.6-0.7c-0.4,0-0.6,0.2-0.6,0.7v1.9c0,0.4,0.2,0.7,0.6,0.7s0.6-0.2,0.6-0.7V61.6z"></path>										<path class="st4" d="M104.6,67.7c0-0.4,0.1-0.7,0.4-0.9c0.2-0.2,0.5-0.3,0.8-0.3s0.6,0.1,0.8,0.3c0.2,0.2,0.4,0.5,0.4,0.9           v1.9c0,0.4-0.1,0.7-0.4,0.9s-0.5,0.3-0.8,0.3c-0.3,0-0.6-0.1-0.8-0.3c-0.2-0.2-0.4-0.5-0.4-0.9V67.7z M106.4,67.7           c0-0.4-0.2-0.7-0.6-0.7c-0.4,0-0.6,0.2-0.6,0.7v1.9c0,0.4,0.2,0.7,0.6,0.7s0.6-0.2,0.6-0.7V67.7z"></path>										<path class="st4" d="M105.5,73.3l-0.6,0.5v-0.7l0.6-0.4h0.6V77h-0.6C105.5,77,105.5,73.3,105.5,73.3z"></path>										<path class="st4" d="M104.6,79.9c0-0.4,0.1-0.7,0.4-0.9c0.2-0.2,0.5-0.3,0.8-0.3s0.6,0.1,0.8,0.3c0.2,0.2,0.4,0.5,0.4,0.9           v1.9c0,0.4-0.1,0.7-0.4,0.9s-0.5,0.3-0.8,0.3c-0.3,0-0.6-0.1-0.8-0.3c-0.2-0.2-0.4-0.5-0.4-0.9V79.9z M106.4,80           c0-0.4-0.2-0.7-0.6-0.7c-0.4,0-0.6,0.2-0.6,0.7v1.9c0,0.4,0.2,0.7,0.6,0.7s0.6-0.2,0.6-0.7V80z"></path>										<path class="st4" d="M105.5,85.5l-0.6,0.5v-0.7l0.6-0.4h0.6v4.4h-0.6C105.5,89.2,105.5,85.5,105.5,85.5z"></path>										<path class="st4" d="M105.5,91.7l-0.6,0.5v-0.7l0.6-0.4h0.6v4.4h-0.6C105.5,95.4,105.5,91.7,105.5,91.7z"></path>										<path class="st4" d="M105.5,97.8l-0.6,0.5v-0.7l0.6-0.4h0.6v4.4h-0.6C105.5,101.5,105.5,97.8,105.5,97.8z"></path>										<path class="st4" d="M104.6,104.5c0-0.4,0.1-0.7,0.4-0.9c0.2-0.2,0.5-0.3,0.8-0.3s0.6,0.1,0.8,0.3           c0.2,0.2,0.4,0.5,0.4,0.9v1.9c0,0.4-0.1,0.7-0.4,0.9s-0.5,0.3-0.8,0.3c-0.3,0-0.6-0.1-0.8-0.3c-0.2-0.2-0.4-0.5-0.4-0.9           V104.5z M106.4,104.5c0-0.4-0.2-0.7-0.6-0.7c-0.4,0-0.6,0.2-0.6,0.7v1.9c0,0.4,0.2,0.7,0.6,0.7s0.6-0.2,0.6-0.7V104.5z"></path>									</g>									<g class="st5">										<path class="st4" d="M174.6,271.8l-0.7,0.6v-0.8l0.7-0.5h0.7v5.4h-0.7V271.8z"></path>									</g>								</g>							</g>						</g>					</g>					<g>						<path class="st0" d="M80,62.2l0.4-5l-2.1-4H76l-4.4,2.3l-2.9,5.2L65,59.3v-4l4.1-2.1l1.2-3.5l2.3-1l0.9-8l-12.5-4.1       c-0.2,0.2-0.5,0.4-0.8,0.5c-0.2,0.1-0.4,0.1-0.6,0.1c-0.3,0-0.6-0.1-0.9-0.2c-0.5-0.2-0.8-0.7-1-1.2s-0.1-1,0.1-1.5       c0.2-0.5,0.7-0.8,1.2-1c0.5-0.2,1-0.1,1.5,0.1c0.5,0.2,0.8,0.7,1,1.2c0.1,0.3,0.1,0.6,0.1,0.9l9.6,3.2l0.5-1.8l1.5-1l0.8-1.9       l-9.3-5l-1.9-1.7h-3.5l-3.3-2.1L50.3,29l3.9,2.5l-4.6,1.2l-0.8,7.7l-1.6,1.8l11.6,3v7c0.1,0,0.2,0.1,0.3,0.1       c0.5,0.2,0.8,0.7,1,1.2c0.2,0.5,0.1,1-0.1,1.5c-0.2,0.5-0.7,0.8-1.2,1c-0.2,0.1-0.4,0.1-0.6,0.1c-0.3,0-0.6-0.1-0.9-0.2       c-1-0.5-1.3-1.7-0.8-2.7c0.2-0.5,0.7-0.8,1.2-1c0,0,0,0,0,0V46l-13.2-3.3l0.1-0.6l0,0l0.2-5.4l-4,3.1l-0.8,4.6l-4,8.1l1.3,4       l5.1-5.5c-0.1-0.2-0.2-0.3-0.2-0.5c-0.2-0.5-0.1-1,0.1-1.5c0.2-0.5,0.7-0.8,1.2-1c0.5-0.2,1-0.1,1.5,0.1       c0.5,0.2,0.8,0.7,1,1.2c0.2,0.5,0.1,1-0.1,1.5c-0.2,0.5-0.7,0.8-1.2,1c-0.2,0.1-0.4,0.1-0.6,0.1c-0.2,0-0.5,0-0.8-0.2l-8,8.7       l4.1,7.4l0.2,9.5l-3.1,4.6h7.5l3.2-4.4V61.6c-0.8-0.2-1.4-1-1.4-1.9c0-1.1,0.9-2,2-2s2,0.9,2,2c0,0.9-0.6,1.7-1.4,1.9v16.2       L44.5,83h-8.9l-4.2,6.2h38.3L66,80.8V70c-0.1,0-0.2-0.1-0.3-0.1c-0.5-0.2-0.8-0.7-1-1.2c-0.2-0.5-0.1-1,0.1-1.5       c0.2-0.5,0.7-0.8,1.2-1s1-0.1,1.5,0.1s0.8,0.7,1,1.2c0.2,0.5,0.1,1-0.1,1.5c-0.2,0.5-0.7,0.8-1.2,1c0,0,0-0.1,0-0.1v10.6       l3.7,8.3l3.4-3.4v-5h1.9v-4.2h6.6v-7.7L80,62.2L80,62.2z M61.5,81.3h-8.9l1.5-11.8c-1.1-0.9-1.8-2.2-1.8-3.8       c0-2.6,2.2-4.8,4.8-4.8s4.8,2.2,4.8,4.8c0,1.5-0.7,2.9-1.8,3.8C60,69.5,61.5,81.3,61.5,81.3z"></path>						<path class="st0" d="M67.3,68.4c-0.1,0.2-0.3,0.3-0.5,0.4c-0.2,0.1-0.4,0.1-0.6-0.1c-0.2-0.1-0.3-0.3-0.4-0.5       s-0.1-0.4,0.1-0.6c0.1-0.2,0.3-0.3,0.5-0.4c0.1,0,0.2,0,0.2,0c0.1,0,0.3,0,0.4,0.1c0.2,0.1,0.3,0.3,0.4,0.5       C67.4,68,67.4,68.2,67.3,68.4z"></path>						<path class="st0" d="M59.8,36c-0.2,0.1-0.4,0-0.6,0s-0.3-0.3-0.4-0.5c-0.1-0.2,0-0.4,0-0.6s0.3-0.3,0.5-0.4c0.1,0,0.2,0,0.2,0       c0.1,0,0.3,0,0.4,0.1c0.2,0.1,0.3,0.3,0.4,0.5s0,0.4,0,0.6C60.2,35.8,60,35.9,59.8,36L59.8,36z"></path>						<path class="st0" d="M58.9,53.8c0.1,0.2,0,0.4-0.1,0.6c-0.1,0.2-0.3,0.3-0.5,0.4s-0.4,0-0.6-0.1c-0.4-0.2-0.6-0.7-0.3-1.1       c0.1-0.2,0.3-0.3,0.5-0.4c0.1,0,0.2,0,0.2,0c0.1,0,0.3,0,0.4,0.1C58.7,53.5,58.8,53.6,58.9,53.8z"></path>						<path class="st0" d="M47.7,58.8c0.5,0,0.8,0.4,0.8,0.8s-0.4,0.8-0.8,0.8s-0.8-0.4-0.8-0.8S47.3,58.8,47.7,58.8z"></path>						<path class="st0" d="M44.3,49.2c0.4,0.2,0.6,0.7,0.3,1.1c-0.1,0.2-0.3,0.3-0.5,0.4c-0.2,0.1-0.4,0-0.6,0       c-0.4-0.2-0.6-0.7-0.3-1.1c0.1-0.2,0.3-0.3,0.5-0.4c0.1,0,0.2,0,0.2,0C44,49.1,44.1,49.1,44.3,49.2z"></path>					</g>					<path class="st1" d="M27.1,11.9c-4.1,2.8-7.8,6.2-10.9,10l-2.4-0.2l-1.6-2.1L4,17l-4-3l3.7-2.4V9.7l4.6-1h2l3.6-1.6L16.7,4      l3.6-4H25l-4.2,4.1l-2.1,5.2L18.4,10l1,0l5.7,0.2C25.2,10.2,27.1,11.9,27.1,11.9z"></path>				</g>				<path class="st0" d="M18.4,10l0.3-0.6l-4.5,3.5H9.8c0-1-0.8-1.8-1.8-1.8s-1.8,0.8-1.8,1.8S7,14.7,8,14.7c0.6,0,1.2-0.3,1.6-0.9     h5l4.9-3.9C19.4,10,18.4,10,18.4,10z M7.9,13.7c-0.4,0-0.8-0.4-0.8-0.8s0.4-0.8,0.8-0.8s0.8,0.4,0.8,0.8S8.4,13.7,7.9,13.7z"></path>				<path class="st1" d="M45.1,13.2c-1,0-1.8,0.8-1.8,1.8c0,0.1,0,0.3,0,0.4l-5.4,3.2H24.2l-3.9,4.7l0.8,0.6l3.6-4.3h13.5l5.5-3.3     c0.3,0.4,0.8,0.6,1.3,0.6c1,0,1.8-0.8,1.8-1.8S46.1,13.2,45.1,13.2L45.1,13.2z M45.1,15.8c-0.5,0-0.8-0.4-0.8-0.8     s0.4-0.8,0.8-0.8s0.8,0.4,0.8,0.8S45.6,15.8,45.1,15.8z"></path>			</g>		</g>		<g>			<g>				<path class="st0" d="M172.1,90.6h-16.6V49c0-2.3-0.8-4.3-2.5-5.9c-1.6-1.6-3.6-2.5-5.9-2.5s-4.3,0.8-5.9,2.5s-2.5,3.6-2.5,5.9     v41.6h-16.6V32.3h16.6v8.4c0.3-2.8,1.2-4.9,2.6-6.3c1.4-1.4,3.3-2.1,5.8-2.1h8.4c5.6,0,9.8,2,12.5,5.9c1.3-2,3-3.5,5.1-4.4     c2.1-1,4.6-1.5,7.4-1.5h8.3c4.6,0,8.5,1.6,11.8,4.9c3.3,3.3,4.9,7.2,4.9,11.8v41.6h-16.7V49c0-2.3-0.8-4.2-2.5-5.9     c-1.6-1.7-3.6-2.5-5.8-2.5s-4.3,0.8-5.9,2.5s-2.5,3.6-2.5,5.9L172.1,90.6L172.1,90.6z"></path>				<path class="st0" d="M212.5,90.6V32.3h16.6v58.3H212.5z"></path>				<path class="st0" d="M277.1,49h-8.3c-0.7-5.6-3.4-8.4-7.9-8.4c-2.9,0-5.1,0.6-6.6,1.7c-1.5,1.2-2.2,2.9-2.2,5.2s4,5.8,12.1,10.1     c6.6,3.5,10.4,6.5,11.4,8.8c1,2.3,1.5,4.8,1.5,7.4c0,4.6-1.6,8.6-4.9,11.8s-7.2,4.9-11.7,4.9h-8.4c-11.1,0-16.6-5.5-16.6-16.6     h8.4c0.6,5.5,3.2,8.3,7.8,8.3c2.9,0,5.2-0.6,6.6-1.8c1.5-1.2,2.2-2.9,2.2-5.2s-4-5.7-12.1-10.1c-6.6-3.5-10.4-6.4-11.4-8.8     s-1.5-4.8-1.5-7.4c0-4.7,1.6-8.6,4.9-11.9s7.2-4.9,11.7-4.9h8.4C270.9,32.3,276.4,37.8,277.1,49L277.1,49z"></path>				<path class="st0" d="M331.8,65.6h-33.3V74c0,2.2,0.8,4.2,2.4,5.8s3.6,2.5,5.9,2.5h8.4c5.5,0,8.3-2.8,8.3-8.3h8.4     c-1.3,11.1-6.9,16.6-16.6,16.6h-16.7c-4.6,0-8.5-1.6-11.7-4.9c-3.3-3.3-4.9-7.2-4.9-11.7V49c0-4.6,1.6-8.5,4.9-11.8     s7.2-4.9,11.7-4.9h16.7c4.5,0,8.5,1.7,11.7,4.9c3.3,3.3,4.9,7.2,4.9,11.8L331.8,65.6L331.8,65.6z M298.5,57.3h16.7V49     c0-2.3-0.8-4.3-2.5-5.9c-1.6-1.6-3.6-2.5-5.9-2.5s-4.3,0.8-5.9,2.5c-1.6,1.6-2.5,3.6-2.5,5.9L298.5,57.3L298.5,57.3z"></path>				<path class="st0" d="M378.1,49h-8.3c-0.6-5.6-3.4-8.4-8.4-8.4c-2.3,0-4.2,0.8-5.9,2.5c-1.6,1.6-2.5,3.6-2.5,5.9v25     c0,2.2,0.8,4.2,2.4,5.8s3.6,2.5,5.9,2.5c4.9,0,7.7-2.8,8.4-8.3h8.3c-0.7,11.1-6.2,16.6-16.6,16.6h-8.4c-4.5,0-8.5-1.6-11.7-4.9     c-3.3-3.3-4.9-7.2-4.9-11.7V49c0-4.6,1.6-8.5,4.9-11.8s7.2-4.9,11.7-4.9h8.4C371.9,32.3,377.5,37.8,378.1,49L378.1,49z"></path>			</g>			<polygon class="st1" points="212.5,28.9 212.5,15.7 229.1,19.5 229.1,28.9    "></polygon>		</g>	</g></g></svg>